<?xml version="1.0" encoding="UTF-8"?>
<svg width="1336px" height="752px" viewBox="0 0 1336 752" version="1.1" xmlns="http://www.w3.org/2000/svg" xmlns:xlink="http://www.w3.org/1999/xlink">
    <!-- Generator: Sketch 50.2 (55047) - http://www.bohemiancoding.com/sketch -->
    <title>Group 2</title>
    <desc>Created with Sketch.</desc>
    <defs></defs>
    <g id="Page-1" stroke="none" stroke-width="1" fill="none" fill-rule="evenodd">
        <g id="Desktop-HD-Copy" transform="translate(-53.000000, -157.000000)">
            <g id="Group-2" transform="translate(50.000000, 158.000000)">
                <path d="M725.680536,108.223798 L725.680536,230.998105 L1129.58794,230.998105 C1162.72502,230.998105 1189.58794,257.86102 1189.58794,290.998105 L1189.58794,317.989364 C1189.58794,351.126449 1216.45085,377.989364 1249.58794,377.989364 L1278.64729,377.989364 C1311.78437,377.989364 1338.64729,404.852279 1338.64729,437.989364 L1338.64729,485.439929 C1338.64729,518.577014 1311.78437,545.439929 1278.64729,545.439929 L1155.96999,545.439929 C1122.83291,545.439929 1095.96999,572.302844 1095.96999,605.439929 L1095.96999,623.438694 C1095.96999,656.575779 1069.10708,683.438694 1035.96999,683.438694 L955.801578,683.438694 L799.217712,669.940722 L238.920326,669.940722 C205.783241,669.940722 178.920326,643.077807 178.920326,609.940722 L178.920326,518.561734 C178.920326,485.424649 152.057411,458.561734 118.920326,458.561734 L102.371069,458.561734 C69.2339841,458.561734 42.3710691,431.698819 42.3710691,398.561734 L42.3710691,311.318925 C42.3710691,278.18184 69.2339841,251.318925 102.371069,251.318925 L286.056985,251.318925 C319.19407,251.318925 346.056985,224.456009 346.056985,191.318925 L346.056985,168.223798 C346.056985,135.086713 372.9199,108.223798 406.056985,108.223798 L725.680536,108.223798 Z" id="Path-5" fill="#000000" opacity="0.0674107143"></path>
                <g id="Group" transform="translate(241.000000, 140.000000)" stroke="#213541" stroke-width="6">
                    <path d="M315.478338,0 L692.094204,0 C712.52874,-3.75376332e-15 729.094204,16.5654643 729.094204,37 L729.094204,538.127854 C729.094204,576.235501 698.201852,607.127854 660.094204,607.127854 L211,607.127854 L278.478338,327.118203 L278.478338,37 C278.478338,16.5654643 295.043802,3.75376332e-15 315.478338,0 Z" id="Path-4" fill="#A1E0FF"></path>
                    <path d="M79.1283262,259.948523 C99.0725142,266.607857 113.603479,274.734893 122.721219,284.329631 C132.74823,294.881207 138.507266,309.605784 139.998328,328.503362 L139.998328,539.066542 C139.998328,576.621905 170.442965,607.066542 207.998328,607.066542 L210.869172,607.066542 C248.424535,607.066542 278.869172,576.621905 278.869172,539.066542 L278.869172,258 L79.4450366,257.999999 C78.8927515,257.999999 78.4450359,258.447715 78.4450359,259 C78.4450359,259.430243 78.7202306,259.81226 79.1283262,259.948523 Z" id="Path-3" fill="#005F8D"></path>
                    <path d="M138.503606,397.201028 L35,397.201028 C15.6700338,397.201028 9.47266549e-15,381.530994 7.10542736e-15,362.201028 L0,327.251803 C-4.68387167e-15,289.005088 31.0050883,258 69.2518029,258 L69.5036058,258 C107.611254,258 138.503606,288.892352 138.503606,327 L138.503606,397.201028 Z" id="Path-2" fill="#A1E0FF"></path>
                </g>
                <path d="M254,431.369429 L367,431.369429 C357.333389,420.430013 349.326886,413.254674 342.980493,409.843411 C333.460902,404.726517 327.218699,401 310.5,401 C293.781301,401 286.953419,404.356973 276.746321,409.843411 C269.941589,413.501036 262.359482,420.676375 254,431.369429 Z" id="Path-6" fill="#54C1F6"></path>
                <path d="M341,401 C348.867521,406.534882 355.209695,411.456897 360.026522,415.766048 C364.843349,420.075198 368.977791,424.997214 372.429848,430.532096 L518,430.532096 L518,401 L341,401 Z" id="Path-7" fill="#004E70"></path>
                <path d="M555.5,263 L929.5,263 C931.432997,263 933,264.567003 933,266.5 L933,267.5 C933,269.432997 931.432997,271 929.5,271 L555.5,271 C553.567003,271 552,269.432997 552,267.5 L552,266.5 C552,264.567003 553.567003,263 555.5,263 Z" id="Rectangle-3" fill="#0098DC"></path>
                <path d="M555.5,284 L929.5,284 C931.432997,284 933,285.567003 933,287.5 L933,288.5 C933,290.432997 931.432997,292 929.5,292 L555.5,292 C553.567003,292 552,290.432997 552,288.5 L552,287.5 C552,285.567003 553.567003,284 555.5,284 Z" id="Rectangle-3" fill="#0098DC"></path>
                <path d="M555.5,306 L929.5,306 C931.432997,306 933,307.567003 933,309.5 L933,310.5 C933,312.432997 931.432997,314 929.5,314 L555.5,314 C553.567003,314 552,312.432997 552,310.5 L552,309.5 C552,307.567003 553.567003,306 555.5,306 Z" id="Rectangle-3" fill="#0098DC"></path>
                <path d="M555.5,438 L929.5,438 C931.432997,438 933,439.567003 933,441.5 L933,442.5 C933,444.432997 931.432997,446 929.5,446 L555.5,446 C553.567003,446 552,444.432997 552,442.5 L552,441.5 C552,439.567003 553.567003,438 555.5,438 Z" id="Rectangle-3" fill="#0098DC"></path>
                <path d="M555.5,459 L929.5,459 C931.432997,459 933,460.567003 933,462.5 L933,463.5 C933,465.432997 931.432997,467 929.5,467 L555.5,467 C553.567003,467 552,465.432997 552,463.5 L552,462.5 C552,460.567003 553.567003,459 555.5,459 Z" id="Rectangle-3" fill="#0098DC"></path>
                <path d="M555.5,481 L929.5,481 C931.432997,481 933,482.567003 933,484.5 L933,485.5 C933,487.432997 931.432997,489 929.5,489 L555.5,489 C553.567003,489 552,487.432997 552,485.5 L552,484.5 C552,482.567003 553.567003,481 555.5,481 Z" id="Rectangle-3" fill="#0098DC"></path>
                <circle id="Oval-3" fill="#A1E0FF" cx="743.5" cy="470.5" r="128.5"></circle>
                <path d="M555.5,611 L929.5,611 C931.432997,611 933,612.567003 933,614.5 L933,615.5 C933,617.432997 931.432997,619 929.5,619 L555.5,619 C553.567003,619 552,617.432997 552,615.5 L552,614.5 C552,612.567003 553.567003,611 555.5,611 Z" id="Rectangle-3" fill="#0098DC"></path>
                <path d="M555.5,632 L929.5,632 C931.432997,632 933,633.567003 933,635.5 L933,636.5 C933,638.432997 931.432997,640 929.5,640 L555.5,640 C553.567003,640 552,638.432997 552,636.5 L552,635.5 C552,633.567003 553.567003,632 555.5,632 Z" id="Rectangle-3" fill="#0098DC"></path>
                <path d="M555.5,654 L929.5,654 C931.432997,654 933,655.567003 933,657.5 L933,658.5 C933,660.432997 931.432997,662 929.5,662 L555.5,662 C553.567003,662 552,660.432997 552,658.5 L552,657.5 C552,655.567003 553.567003,654 555.5,654 Z" id="Rectangle-3" fill="#0098DC"></path>
                <path d="M845.949384,513.385014 C840.445508,509.971109 833.952942,508 827,508 C820.865853,508 815.090037,509.534199 810.035335,512.239814 C805.161646,498.132377 791.764095,488 776,488 C766.774782,488 758.360021,491.469976 751.989714,497.175932 C745.393469,489.708896 735.746645,485 725,485 C708.070072,485 693.869667,496.686474 690.025714,512.432491 C684.505575,508.98939 677.985111,507 671,507 C660.461751,507 650.981082,511.52804 644.397451,518.744661 C637.727843,504.557844 634,488.714264 634,472 C634,411.248678 683.248678,362 744,362 C804.751322,362 854,411.248678 854,472 C854,486.638934 851.140422,500.609978 845.949384,513.385012 L845.949384,513.385014 Z" id="Combined-Shape" stroke="#213541" stroke-width="6" fill="#008ED2"></path>
                <path d="M705.514754,508.289775 C709.222581,504.275912 712.339243,501.610155 714.864741,500.292504 C717.390239,498.974853 720.926918,498.342573 725.474777,498.395664" id="Line-3" stroke="#213541" stroke-width="6" stroke-linecap="round"></path>
                <path d="M749.5,505.5 C750.101839,503.111302 750.809385,501.277969 751.622638,500 C752.435891,498.722031 754.061678,496.888698 756.5,494.5" id="Line-4" stroke="#213541" stroke-width="6" stroke-linecap="round"></path>
                <path d="M560,375 L593,375 C595.761424,375 598,377.238576 598,380 L598,413 C598,415.761424 595.761424,418 593,418 L560,418 C557.238576,418 555,415.761424 555,413 L555,380 C555,377.238576 557.238576,375 560,375 Z" id="Rectangle-4" stroke="#0098DC" stroke-width="8"></path>
                <path d="M560,200 L593,200 C595.761424,200 598,202.238576 598,205 L598,238 C598,240.761424 595.761424,243 593,243 L560,243 C557.238576,243 555,240.761424 555,238 L555,205 C555,202.238576 557.238576,200 560,200 Z" id="Rectangle-4" stroke="#0098DC" stroke-width="8"></path>
                <path d="M560,548 L593,548 C595.761424,548 598,550.238576 598,553 L598,586 C598,588.761424 595.761424,591 593,591 L560,591 C557.238576,591 555,588.761424 555,586 L555,553 C555,550.238576 557.238576,548 560,548 Z" id="Rectangle-4" stroke="#0098DC" stroke-width="8"></path>
                <path d="M673.563031,165.925502 C655.114985,196.196547 642.820996,218.670241 636.681066,233.346584 C627.471171,255.361097 613.242259,303.73553 613.242259,312.382063 C613.242259,321.028596 615.182133,329.88094 620.459829,334.895083 C625.737525,339.909226 632.408628,341.839163 641.997486,340.083893 C651.586344,338.328623 658.098406,329.307467 666.853514,323.301494 C672.690253,319.297513 683.799982,312.166933 700.182702,301.909756 L673.563031,165.925502 Z" id="Path-9" fill="#A1E0FF"></path>
                <path d="M669.821974,205.702007 C657.659259,225.659574 649.553886,240.476382 645.505857,250.15243 C639.433813,264.666502 630.052754,296.559553 630.052754,302.260174 C630.052754,307.960795 631.331705,313.797107 634.811267,317.102909 C638.290829,320.408712 642.689057,321.681111 649.010949,320.523869 C655.332841,319.366627 659.626215,313.419018 665.398419,309.459307 C669.246556,306.8195 676.571151,302.11834 687.372206,295.355828 L669.821974,205.702007 Z" id="Path-9" stroke="#213541" stroke-width="7" fill="#F1F3F5"></path>
                <path d="M778,485.051728 C777.337678,485.017385 776.670869,485 776,485 C766.967931,485 758.671849,488.151132 752.151156,493.413994 C745.253477,486.370612 735.637144,482 725,482 C718.487475,482 712.357592,483.638291 707,486.525227 L707,402 L778,402 L778,485.051728 Z" id="Combined-Shape" fill="#FFFFFF"></path>
                <path d="M707.5,489.5 L707.5,388.455455" id="Line-6" stroke="#213541" stroke-width="6" stroke-linecap="round"></path>
                <path d="M777.5,487.5 L777.5,386.455455" id="Line-6" stroke="#213541" stroke-width="6" stroke-linecap="round"></path>
                <path d="M809.889873,162 C829.309559,193.865391 842.25106,217.522753 848.714375,232.972084 C858.409346,256.146081 873.387681,307.068347 873.387681,316.170284 C873.387681,325.272221 871.345635,334.59081 865.789968,339.869043 C860.234301,345.147276 853.211838,347.178861 843.117944,345.331142 C833.02405,343.483424 826.169004,333.987132 816.952773,327.664831 C810.808619,323.449964 799.113752,315.943824 781.86817,305.146411 L809.889873,162 Z" id="Path-9" fill="#A1E0FF"></path>
                <path d="M813.602986,205.702007 C825.765702,225.659574 833.871074,240.476382 837.919104,250.15243 C843.991147,264.666502 853.372206,296.559553 853.372206,302.260174 C853.372206,307.960795 852.093256,313.797107 848.613694,317.102909 C845.134132,320.408712 840.735903,321.681111 834.414011,320.523869 C828.092119,319.366627 823.798745,313.419018 818.026541,309.459307 C814.178405,306.8195 806.853809,302.11834 796.052754,295.355828 L813.602986,205.702007 Z" id="Path-9" stroke="#213541" stroke-width="7" fill="#F1F3F5"></path>
                <path d="M794.602986,275.702007 C806.765702,295.659574 814.871074,310.476382 818.919104,320.15243 C824.991147,334.666502 834.372206,366.559553 834.372206,372.260174 C834.372206,377.960795 833.093256,383.797107 829.613694,387.102909 C826.134132,390.408712 821.735903,391.681111 815.414011,390.523869 C809.092119,389.366627 804.798745,383.419018 799.026541,379.459307 C795.178405,376.8195 787.853809,372.11834 777.052754,365.355828 L794.602986,275.702007 Z" id="Path-9" fill="#279ADF" opacity="0.285602679"></path>
                <ellipse id="Oval-4" stroke="#213541" stroke-width="6" fill="#F1F3F5" cx="742" cy="198.5" rx="70" ry="195.5"></ellipse>
                <circle id="Oval-5" stroke="#213541" stroke-width="6" fill="#0098DC" cx="742" cy="134" r="36"></circle>
                <path d="M700.5,46.5 L784.505952,46.5" id="Line-5" stroke="#213541" stroke-width="6" stroke-linecap="square"></path>
                <path d="M740,396.957185 L740,0.042814797 C740.498762,0.014318029 740.998779,0 741.5,0 C780.98836,0 813,88.8714772 813,198.5 C813,308.128523 780.98836,397 741.5,397 C740.998779,397 740.498762,396.985682 740,396.957185 Z" id="Combined-Shape" stroke="#979797" fill="#213541" opacity="0.130691964"></path>
                <path d="M741.5,391.5 L741.5,290.455455" id="Line-6" stroke="#213541" stroke-width="6" stroke-linecap="round"></path>
                <path d="M726.5,484 L726.5,419.455455" id="Line-6" stroke="#213541" stroke-width="6" stroke-linecap="round"></path>
                <path d="M743.5,472 L743.5,438" id="Line-6" stroke="#213541" stroke-width="6" stroke-linecap="round"></path>
                <path d="M759.5,450 L759.5,426.455455" id="Line-6" stroke="#213541" stroke-width="6" stroke-linecap="round"></path>
                <path d="M759.5,471 L759.5,463.455455" id="Line-6" stroke="#213541" stroke-width="6" stroke-linecap="round"></path>
                <g id="Group" transform="translate(693.000000, 359.000000)" stroke="#213541" stroke-width="6">
                    <polygon id="Path-8" fill="#354957" stroke-linecap="round" stroke-linejoin="round" points="14.4065337 0.964206573 85.1404889 0.964206573 85.1404889 15.5247127 99.5802784 44.1032455 0.0829897444 44.1032455 14.4065337 15.5247127"></polygon>
                    <path d="M15.5,14.5 L83,14.5" id="Line" stroke-linecap="square"></path>
                    <path d="M25.5,29.5 L74.510203,29.5" id="Line-2" stroke-linecap="round"></path>
                </g>
                <path d="M512.492987,716 L955.31034,716 C950.995738,722.195552 944.636649,728.222466 936.233072,734.080741 C927.829496,739.939016 917.52149,743.330711 905.309057,744.255826 L480.344869,744.255826 C486.130475,741.500261 492.275425,737.099733 498.779719,731.054241 C505.284013,725.008748 509.855102,719.990668 512.492987,716 Z" id="Path-10" fill="#54C1F6" opacity="0.714453125"></path>
                <path d="M729.236608,115.31093 C726.448879,116.732245 723.328175,118.741661 721.511312,122.901153 C719.69445,127.060646 719.029457,129.857841 719.029457,133.86907" id="Path-11" stroke="#FFFFFF" stroke-width="8" stroke-linecap="round"></path>
                <path d="M638.5,559 C633.253295,559 629,563.253295 629,568.5 L629,571.5 C629,576.746705 633.253295,581 638.5,581 L767.5,581 C772.746705,581 777,576.746705 777,571.5 L777,568.5 C777,563.253295 772.746705,559 767.5,559 L638.5,559 Z" id="Rectangle-6" stroke="#0098DC" stroke-width="8"></path>
                <polygon id="Path-12" fill="#464646" opacity="0.361383929" points="816.042966 213.858034 832.723719 239.651757 821.874699 310.764515 801.474619 299.990904 805.827328 270.601903 811.276829 239.651757"></polygon>
                <path d="M614.062562,193.639653 C616.936637,195.850188 617.334137,199.899969 614.907309,202.579242 C611.739801,206.06968 609.956856,208.034489 609.939975,208.05325 L584.959883,235.675066 L583.102156,233.723866 L577.68001,228.028898 L567.201311,217.030978 C564.70858,214.414742 564.992009,210.355298 567.807012,208.075276 C570.502354,205.890974 574.542535,206.131663 576.925465,208.634815 L584.709953,216.805438 L604.961945,194.421037 C607.279519,191.858931 611.31238,191.52274 614.062562,193.639653 Z" id="Shape" stroke="#A1E0FF" stroke-width="5" fill="#0098DC" fill-rule="nonzero"></path>
                <path d="M614.062562,368.639653 C616.936637,370.850188 617.334137,374.899969 614.907309,377.579242 C611.739801,381.06968 609.956856,383.034489 609.939975,383.05325 L584.959883,410.675066 L583.102156,408.723866 L577.68001,403.028898 L567.201311,392.030978 C564.70858,389.414742 564.992009,385.355298 567.807012,383.075276 C570.502354,380.890974 574.542535,381.131663 576.925465,383.634815 L584.709953,391.805438 L604.961945,369.421037 C607.279519,366.858931 611.31238,366.52274 614.062562,368.639653 Z" id="Shape" stroke="#A1E0FF" stroke-width="5" fill="#0098DC" fill-rule="nonzero"></path>
                <path d="M614.062562,541.639653 C616.936637,543.850188 617.334137,547.899969 614.907309,550.579242 C611.739801,554.06968 609.956856,556.034489 609.939975,556.05325 L584.959883,583.675066 L583.102156,581.723866 L577.68001,576.028898 L567.201311,565.030978 C564.70858,562.414742 564.992009,558.355298 567.807012,556.075276 C570.502354,553.890974 574.542535,554.131663 576.925465,556.634815 L584.709953,564.805438 L604.961945,542.421037 C607.279519,539.858931 611.31238,539.52274 614.062562,541.639653 Z" id="Shape" stroke="#A1E0FF" stroke-width="5" fill="#0098DC" fill-rule="nonzero"></path>
                <text id="+" font-family="HelveticaNeue, Helvetica Neue" font-size="97" font-weight="normal" fill="#54C1F6">
                    <tspan x="230" y="174">+</tspan>
                </text>
                <text id="+" font-family="HelveticaNeue, Helvetica Neue" font-size="97" font-weight="normal" fill="#54C1F6">
                    <tspan x="230" y="174">+</tspan>
                </text>
                <text id="+" font-family="HelveticaNeue, Helvetica Neue" font-size="70" font-weight="normal" fill="#54C1F6">
                    <tspan x="870" y="74">+</tspan>
                </text>
                <text id="+" font-family="HelveticaNeue, Helvetica Neue" font-size="70" font-weight="normal" fill="#54C1F6">
                    <tspan x="1240" y="124">+</tspan>
                </text>
                <text id="+" font-family="HelveticaNeue, Helvetica Neue" font-size="72" font-weight="normal" fill="#54C1F6">
                    <tspan x="0" y="634">+</tspan>
                </text>
                <text id="+" font-family="HelveticaNeue, Helvetica Neue" font-size="72" font-weight="normal" fill="#008ED2">
                    <tspan x="1160" y="704">+</tspan>
                </text>
            </g>
        </g>
    </g>
</svg>